<?xml version="1.0" encoding="utf-8"?>
<!-- Generator: Adobe Illustrator 19.0.1, SVG Export Plug-In . SVG Version: 6.00 Build 0)  -->
<svg version="1.1" xmlns="http://www.w3.org/2000/svg" xmlns:xlink="http://www.w3.org/1999/xlink" x="0px" y="0px"
	 viewBox="0 0 320 61" enable-background="new 0 0 320 61" xml:space="preserve">
<g id="Wells_Fargo_Rewards_xAE_">
	<text transform="matrix(1 0 0 1 83.7208 39.6885)" fill="#8F8F8F" font-family="'Archer-Semibold'" font-size="26px">Wells Fargo Rewards®</text>
</g>
<g id="Logo_red_box_copy_1_" enable-background="new    ">
	<g id="Logo_red_box_copy">
		<g>
			<rect fill-rule="evenodd" clip-rule="evenodd" fill="#BB0826" width="64" height="61"/>
		</g>
	</g>
</g>
<g id="WF_copy_1_" enable-background="new    ">
	<g id="WF_copy">
		<g>
			<path fill="#FCC60A" d="M38.8,21L38.8,21l-8.9,0v2h1.3c1.1,0,1.6,0.2,1.6,0.8c0,0.3,0,0.8-0.2,1.4l-3.6,9.1c0,0,0,0-0.2,0
				c-1.6-4.6-3.9-9.8-3.9-9.8c-0.1-0.3-0.2-0.5-0.2-0.8c0-0.5,0.4-0.7,1.3-0.7h1.6v-2h-10v2h1.3c1.6,0,2.1,0.8,2.3,2.2l-3.7,9
				c0,0-0.1,0-0.3,0c-1.7-4.9-3.9-9.8-3.9-9.8c-0.1-0.3-0.1-0.5-0.1-0.6c0-0.6,0.4-0.8,1.5-0.8h0.9v-2H6v2h0.4c1.4,0,2.3,0.9,3,2.4
				L15,39h3.5l4.1-10l4.3,10h3.4l5.4-13.8c0.6-1.6,1.1-2.2,2.7-2.2H39v0h0.9c1.6,0,2.2,0.2,2.2,1.6c0,10.6,0,0,0,10.6
				c0,1.5-0.6,1.6-2.2,1.6l-1.1,0v2h11.5v-2h-2.2c-1.6,0-1.9-0.2-1.9-1.6v-4.7h1.5c2.3,0,2.7,0.6,2.7,3.6l1.8,0v-9h-1.7
				c0,2.8-0.4,3.2-2.7,3.2h-1.5v-5.4h4.7c2.2,0,3.5,0.2,4.2,1.2c0.5,1,0.8,2.2,0.8,3.6H58v-7C38.8,21,58,21,38.8,21z"/>
		</g>
	</g>
</g>
</svg>
